# xmcd
#
# Track frame offsets:
#	150
#	16207
#	36877
#	54407
#	69637
#	91420
#	110265
#	124797
#	140850
#	159972
#	176820
#
# Disc length: 2546 seconds
#
# Revision: 5
# Processed by: cddbd v1.5.2PL0 Copyright (c) Steve Scherf et al.
# Submitted via: EasyCDDAExtractor 15.3.0.1
#
DISCID=9309f00b
DTITLE=Rocio Durcal - Para Toda La Vida
DYEAR=1999
DGENRE=Latin
TTITLE0=Para Toda La Vida
TTITLE1=Parece Mentira
TTITLE2=Pagare Condena
TTITLE3=Hoy Lo Vi Pasar
TTITLE4=No Pensar En Ti
TTITLE5=El Juzgado 23
TTITLE6=Siempre Por Ti
TTITLE7=Poquito Olvido, Mucho Corazon
TTITLE8=El Amor Que Tenia
TTITLE9=La Farsante
TTITLE10=Ten Cuidado
EXTD=
EXTT0=
EXTT1=
EXTT2=
EXTT3=
EXTT4=
EXTT5=
EXTT6=
EXTT7=
EXTT8=
EXTT9=
EXTT10=
PLAYORDER=
